<?xml version="1.0" encoding="UTF-8"?>
<svg version="1.1" xmlns="http://www.w3.org/2000/svg" width="500" height="500">
<path d="M0 0 C165 0 330 0 500 0 C500 165 500 330 500 500 C335 500 170 500 0 500 C0 335 0 170 0 0 Z " fill="#2E2F4E" transform="translate(0,0)"/>
<path d="M0 0 C14.85 0 29.7 0 45 0 C45 26.4 45 52.8 45 80 C66.45 80 87.9 80 110 80 C110 53.6 110 27.2 110 0 C117.858125 -0.020625 125.71625 -0.04125 133.8125 -0.0625 C136.29112549 -0.071604 138.76975098 -0.08070801 141.32348633 -0.09008789 C143.28466742 -0.09300808 145.24584911 -0.09555639 147.20703125 -0.09765625 C148.73861877 -0.1053302 148.73861877 -0.1053302 150.30114746 -0.11315918 C151.76240051 -0.11334045 151.76240051 -0.11334045 153.25317383 -0.11352539 C154.09922684 -0.115746 154.94527985 -0.11796661 155.81697083 -0.12025452 C158 0 158 0 161 1 C162.32763672 2.95166016 162.32763672 2.95166016 163.6796875 5.5390625 C164.44442383 6.98055664 164.44442383 6.98055664 165.22460938 8.45117188 C165.76923828 9.49853516 166.31386719 10.54589844 166.875 11.625 C168.04758127 13.83694464 169.22210931 16.04785822 170.3984375 18.2578125 C171.2970752 19.95019043 171.2970752 19.95019043 172.21386719 21.67675781 C174.89464025 26.66454935 177.69215956 31.58296356 180.5 36.5 C185.56430251 45.39753344 190.48131948 54.36662166 195.34033203 63.37768555 C199.67421531 71.41258211 204.08476987 79.40127952 208.53515625 87.37207031 C210.29818312 90.53494052 212.0556288 93.70089579 213.8125 96.8671875 C214.48974383 98.08748498 215.16698994 99.3077812 215.84423828 100.52807617 C216.84974289 102.33989073 217.85516889 104.15174859 218.86029053 105.96377563 C219.79967167 107.65707188 220.73967148 109.35002487 221.6796875 111.04296875 C222.22351074 112.02289795 222.76733398 113.00282715 223.32763672 114.01245117 C225.19776118 117.35328519 227.10045917 120.67580355 229 124 C229.33 83.41 229.66 42.82 230 1 C244.52 1 259.04 1 274 1 C274 67 274 133 274 201 C259.15 201 244.3 201 229 201 C227.123125 197.514375 225.24625 194.02875 223.3125 190.4375 C218.79517459 182.07435124 214.20160636 173.76090076 209.5 165.5 C204.43628474 156.6002296 199.51688827 147.63067358 194.6574707 138.61791992 C191.16099887 132.13502124 187.62388153 125.67776953 184.03417969 119.24609375 C181.31812763 114.37773977 178.61900811 109.50034264 175.9296875 104.6171875 C175.39173302 103.64065468 175.39173302 103.64065468 174.84291077 102.64439392 C173.39186776 100.01009279 171.94095153 97.37572411 170.49179077 94.74038696 C169.47580942 92.8928818 168.45869174 91.04600606 167.44140625 89.19921875 C166.85045166 88.12502686 166.25949707 87.05083496 165.65063477 85.9440918 C164.15004802 83.26762744 162.5786908 80.63115134 161 78 C160.67 118.59 160.34 159.18 160 201 C157.60417654 202.19791173 156.13222462 202.1206744 153.45849609 202.11352539 C152.50450928 202.11340454 151.55052246 202.11328369 150.56762695 202.11315918 C149.56304443 202.10804321 148.55846191 202.10292725 147.5234375 202.09765625 C146.60151611 202.09664917 145.67959473 202.09564209 144.72973633 202.09460449 C141.27814494 202.08936322 137.82657125 202.075402 134.375 202.0625 C126.66125 202.041875 118.9475 202.02125 111 202 C111 175.27 111 148.54 111 121 C88.89 121 66.78 121 44 121 C44 147.73 44 174.46 44 202 C29.48 202 14.96 202 0 202 C0 135.34 0 68.68 0 0 Z " fill="#384575" transform="translate(113,194)"/>
<path d="M0 0 C14.52 0 29.04 0 44 0 C44 26.4 44 52.8 44 80 C66.11 80 88.22 80 111 80 C111 53.6 111 27.2 111 0 C112.65 0 114.3 0 116 0 C116 66 116 132 116 200 C114.35 200 112.7 200 111 200 C111 173.6 111 147.2 111 120 C88.89 120 66.78 120 44 120 C44 146.73 44 173.46 44 201 C29.48 201 14.96 201 0 201 C0 134.67 0 68.34 0 0 Z " fill="#FBFBFB" transform="translate(113,195)"/>
<path d="M0 0 C1.32 0 2.64 0 4 0 C4 21.12 4 42.24 4 64 C5.65 64.66 7.3 65.32 9 66 C9.14695312 65.41476563 9.29390625 64.82953125 9.4453125 64.2265625 C11.0792708 57.97244627 12.97610712 51.82426362 15 45.6875 C15.37342529 44.54112061 15.37342529 44.54112061 15.75439453 43.37158203 C17.19633412 39.04954044 18.84583879 35.03264107 21 31 C22.32 31.66 23.64 32.32 25 33 C22.75304781 40.75437102 20.16256452 48.34499115 17.4296875 55.93945312 C17.130625 56.78056641 16.8315625 57.62167969 16.5234375 58.48828125 C16.25450684 59.23634033 15.98557617 59.98439941 15.70849609 60.75512695 C14.95259431 63.15020514 14.45061553 65.53085519 14 68 C15.65 68.33 17.3 68.66 19 69 C27.8304695 57.60842756 35.52958113 45.18781125 42.47265625 32.56640625 C42.83230469 31.91389893 43.19195312 31.2613916 43.5625 30.58911133 C44.49483937 28.87443544 45.40646198 27.14853986 46.31640625 25.421875 C48 23 48 23 50.21484375 22.140625 C50.80394531 22.09421875 51.39304687 22.0478125 52 22 C53 25 53 25 52.34179688 26.81152344 C51.97119141 27.48731445 51.60058594 28.16310547 51.21875 28.859375 C50.79585693 29.63466553 50.37296387 30.40995605 49.93725586 31.20874023 C49.46296143 32.04735596 48.98866699 32.88597168 48.5 33.75 C48.0160376 34.62019775 47.5320752 35.49039551 47.03344727 36.38696289 C42.37039225 44.62553733 37.22545602 52.53630965 31.953125 60.39550781 C31.33824219 61.31557617 30.72335937 62.23564453 30.08984375 63.18359375 C29.54191162 63.99368896 28.99397949 64.80378418 28.42944336 65.63842773 C26.98378348 68.02679119 25.96023587 70.38310304 25 73 C27.19832713 74.73666727 27.19832713 74.73666727 30 76 C33.8069991 74.91936744 36.09087706 73.26505711 38.8125 70.4453125 C39.49570312 69.74792969 40.17890625 69.05054687 40.8828125 68.33203125 C41.58148438 67.60371094 42.28015625 66.87539062 43 66.125 C52.25846934 56.57613586 52.25846934 56.57613586 56 54 C58.3125 54.25 58.3125 54.25 60 55 C59.57392873 59.35201373 56.7275232 61.47153169 53.625 64.1875 C52.82775513 64.90389648 52.82775513 64.90389648 52.0144043 65.63476562 C47.51219962 69.64500975 42.8400586 73.4220431 38.08203125 77.125 C35.75603076 78.90968249 35.75603076 78.90968249 35 82 C35.99 82.99 36.98 83.98 38 85 C47.28473986 80.4182706 56.50743177 75.72570012 65.6875 70.9375 C66.67274658 70.42453369 67.65799316 69.91156738 68.6730957 69.38305664 C72.89198099 67.1791508 77.09981001 64.96473625 81.25390625 62.640625 C81.85823486 62.30426025 82.46256348 61.96789551 83.08520508 61.62133789 C84.61935824 60.76078124 86.14599277 59.88685708 87.671875 59.01171875 C90 58 90 58 93 59 C92.64435588 61.55407923 92.3902092 62.69265046 90.32714844 64.31762695 C89.5952832 64.70394287 88.86341797 65.09025879 88.109375 65.48828125 C87.26777832 65.94041992 86.42618164 66.39255859 85.55908203 66.85839844 C84.63208496 67.33825195 83.70508789 67.81810547 82.75 68.3125 C81.31889893 69.07288574 81.31889893 69.07288574 79.85888672 69.84863281 C76.5811697 71.5826374 73.2917859 73.29286027 70 75 C68.70528462 75.67408783 67.41069212 76.34841174 66.11621094 77.02294922 C57.75804019 81.37577142 49.38481496 85.6987333 41 90 C41.33 92.97 41.66 95.94 42 99 C43.43730469 98.60167969 44.87460937 98.20335937 46.35546875 97.79296875 C63.75511115 92.99165947 63.75511115 92.99165947 71.625 91.0625 C73.06746094 90.70865234 73.06746094 90.70865234 74.5390625 90.34765625 C77.04826123 89.99318214 78.62067681 90.19013647 81 91 C80.34790039 92.89794922 80.34790039 92.89794922 79 95 C76.52905273 95.97314453 76.52905273 95.97314453 73.43359375 96.6328125 C72.30759766 96.88160156 71.18160156 97.13039063 70.02148438 97.38671875 C68.83876953 97.63035156 67.65605469 97.87398438 66.4375 98.125 C65.28185547 98.37636719 64.12621094 98.62773437 62.93554688 98.88671875 C60.67453536 99.37718235 58.41202337 99.86078822 56.14794922 100.33691406 C52.09094577 101.19148374 48.04562909 102.09329551 44 103 C44 103.99 44 104.98 44 106 C44.82779716 105.99666908 44.82779716 105.99666908 45.6723175 105.99327087 C51.46456244 105.97098714 57.25679502 105.95599801 63.04907227 105.94506836 C65.20500178 105.94006845 67.36092796 105.93326635 69.5168457 105.92456055 C72.63233265 105.91230337 75.74777441 105.90672812 78.86328125 105.90234375 C80.28741081 105.89460182 80.28741081 105.89460182 81.74031067 105.88670349 C88.21020446 105.88617239 94.56745286 106.31254366 101 107 C100.67 108.32 100.34 109.64 100 111 C80.72587352 111.02984161 61.45328117 110.94606333 42.1796875 110.81640625 C40.6951002 110.80651536 39.21051285 110.79663222 37.72592545 110.78675652 C30.7452627 110.74018768 23.76460665 110.69273376 16.78395736 110.64418942 C8.85906448 110.5891142 0.93415906 110.5372157 -6.99077237 110.48800808 C-13.21087372 110.44916622 -19.43094981 110.40721563 -25.65101612 110.36312145 C-29.32370247 110.33715708 -32.99638581 110.3123459 -36.66910172 110.29092598 C-52.00547729 110.20034624 -67.33347914 109.99556255 -82.66357422 109.54272461 C-83.69156171 109.51406018 -83.69156171 109.51406018 -84.74031663 109.48481667 C-86.68060185 109.42960112 -88.62068968 109.36757796 -90.5607605 109.30528259 C-91.66236448 109.27063872 -92.76396847 109.23599485 -93.89895439 109.20030117 C-96.98954103 109.00067556 -99.95652788 108.56348001 -103 108 C-103 107.01 -103 106.02 -103 105 C-84.65477021 104.79489805 -66.33333134 105.41877466 -48 106 C-48 103.36 -48 100.72 -48 98 C-51.6873661 96.39552543 -55.37491697 94.79147592 -59.0625 93.1875 C-60.62000977 92.50977539 -60.62000977 92.50977539 -62.20898438 91.81835938 C-67.46678523 89.53163329 -72.72694191 87.25133402 -78 85 C-78 83.68 -78 82.36 -78 81 C-74.01461903 81.65037449 -70.6027593 82.8827195 -66.89453125 84.46875 C-65.74662109 84.95730469 -64.59871094 85.44585937 -63.41601562 85.94921875 C-62.22685547 86.46097656 -61.03769531 86.97273438 -59.8125 87.5 C-58.61173828 88.01175781 -57.41097656 88.52351563 -56.17382812 89.05078125 C-47.4332167 92.78339165 -47.4332167 92.78339165 -45 94 C-44.855625 93.2575 -44.71125 92.515 -44.5625 91.75 C-44.09800774 89.47914894 -43.57094564 87.24539967 -43 85 C-50.6383278 80.02649074 -58.33145442 75.16458388 -66.125 70.4375 C-71.48698265 67.16965049 -76.84241603 63.89505691 -82.125 60.5 C-83.55199219 59.58734375 -83.55199219 59.58734375 -85.0078125 58.65625 C-85.66523438 58.1096875 -86.32265625 57.563125 -87 57 C-87 56.01 -87 55.02 -87 54 C-82.77990508 54.57969919 -79.94378957 56.02481694 -76.3515625 58.28125 C-75.2702002 58.95486572 -74.18883789 59.62848145 -73.07470703 60.32250977 C-72.22854828 60.85680099 -72.22854828 60.85680099 -71.36529541 61.40188599 C-69.61530447 62.50611781 -67.85924866 63.60001451 -66.10107422 64.69116211 C-61.85229493 67.33020695 -57.61177673 69.98211489 -53.3828125 72.65283203 C-51.30272641 73.96575326 -49.21496383 75.26539289 -47.125 76.5625 C-46.01382813 77.26503906 -44.90265625 77.96757813 -43.7578125 78.69140625 C-41.14379837 80.23191576 -41.14379837 80.23191576 -38.6171875 79.71484375 C-37.81667969 79.36099609 -37.81667969 79.36099609 -37 79 C-37.86139417 74.47006575 -40.51027168 71.97427987 -43.625 68.75 C-44.71799985 67.59036372 -45.8104496 66.4302087 -46.90234375 65.26953125 C-47.43327637 64.70959473 -47.96420898 64.1496582 -48.51123047 63.57275391 C-50.42726363 61.5486336 -52.3206097 59.50705897 -54.1875 57.4375 C-54.71730469 56.85871094 -55.24710938 56.27992187 -55.79296875 55.68359375 C-57.1392327 53.80579516 -57.58991277 52.25795019 -58 50 C-49.99013548 51.06309415 -43.81141019 61.14729717 -39.1875 67.0625 C-38.15689453 68.44115234 -38.15689453 68.44115234 -37.10546875 69.84765625 C-34.69349519 72.31332867 -33.41528663 72.85443041 -30 73 C-27.69495956 71.66846734 -27.69495956 71.66846734 -26 70 C-26.54076956 65.41344155 -27.74113253 62.17508724 -30.02734375 58.17578125 C-30.65044434 57.07306885 -31.27354492 55.97035645 -31.91552734 54.83422852 C-32.24591003 54.25891388 -32.57629272 53.68359924 -32.91668701 53.09085083 C-34.64120804 50.08657538 -36.33542622 47.06522071 -38.03515625 44.046875 C-38.37430054 43.44670059 -38.71344482 42.84652618 -39.06286621 42.22816467 C-42.08077634 36.881514 -45.00832553 31.49150466 -47.875 26.0625 C-48.28484131 25.29526611 -48.69468262 24.52803223 -49.11694336 23.73754883 C-49.48827393 23.03138428 -49.85960449 22.32521973 -50.2421875 21.59765625 C-50.5604248 20.99445557 -50.87866211 20.39125488 -51.20654297 19.76977539 C-52.05710983 17.87261872 -52.55444804 16.02728929 -53 14 C-51.68 14 -50.36 14 -49 14 C-48.63350342 14.68288086 -48.26700684 15.36576172 -47.8894043 16.06933594 C-41.58351273 27.81357948 -35.27371218 39.55599405 -28.875 51.25 C-28.43889404 52.05147461 -28.00278809 52.85294922 -27.5534668 53.67871094 C-25.21737889 57.9334509 -22.75993836 62.00635648 -20 66 C-18.35 65.67 -16.7 65.34 -15 65 C-15.8036044 57.04431645 -18.36164035 49.5293245 -20.6484375 41.89648438 C-20.96296875 40.81302734 -21.2775 39.72957031 -21.6015625 38.61328125 C-21.89369629 37.63141846 -22.18583008 36.64955566 -22.48681641 35.63793945 C-23.00476038 32.97553002 -22.89924194 31.52467967 -22 29 C-20.14746094 29.07666016 -20.14746094 29.07666016 -18 30 C-16.98293173 32.31303512 -16.28322843 34.35385088 -15.640625 36.7734375 C-15.34946808 37.79275864 -15.34946808 37.79275864 -15.0524292 38.83267212 C-14.43551574 41.00928489 -13.84310577 43.19179448 -13.25 45.375 C-12.83611703 46.83896135 -12.42076971 48.30250956 -12.00390625 49.765625 C-11.61067201 51.1636955 -11.21870255 52.56212248 -10.828125 53.9609375 C-10.6438092 54.62040375 -10.45949341 55.27987 -10.26959229 55.95932007 C-9.51534128 58.74223836 -9 61.10033113 -9 64 C-5.535 63.505 -5.535 63.505 -2 63 C-2.00507568 62.01281982 -2.01015137 61.02563965 -2.01538086 60.00854492 C-2.05264093 49.31979626 -1.89523982 38.64253751 -1.62768555 27.95727539 C-1.56162364 25.27694343 -1.50241823 22.59651001 -1.44335938 19.91601562 C-1.4014558 18.19009406 -1.35915318 16.46418213 -1.31640625 14.73828125 C-1.29969376 13.94762772 -1.28298126 13.15697418 -1.26576233 12.34236145 C-1.15329033 8.13841872 -0.81055081 4.14176219 0 0 Z " fill="#48527C" transform="translate(251,45)"/>
<path d="M0 0 C90.75 0 181.5 0 275 0 C275 4.29 275 8.58 275 13 C243.59368321 13.92165302 212.21104988 14.13825749 180.79251122 14.10139394 C174.40522899 14.09501356 168.01794594 14.09454528 161.63066101 14.09336853 C150.96543993 14.09064333 140.30022689 14.08445757 129.63500977 14.07543945 C118.67635128 14.06618317 107.71769484 14.0591432 96.7590332 14.05493164 C95.73650441 14.05453756 95.73650441 14.05453756 94.69331846 14.05413551 C91.27165123 14.05282996 87.84998397 14.05156637 84.42831671 14.05032361 C56.28553937 14.04004824 28.1427701 14.02244045 0 14 C0 9.38 0 4.76 0 0 Z " fill="#3A4674" transform="translate(112,170)"/>
<path d="M0 0 C90.75 0 181.5 0 275 0 C275 4.29 275 8.58 275 13 C184.25 13 93.5 13 0 13 C0 8.71 0 4.42 0 0 Z " fill="#384575" transform="translate(112,408)"/>
<path d="M0 0 C0.91910156 0.44601563 1.83820313 0.89203125 2.78515625 1.3515625 C13.10384539 6.92334336 18.64049638 15.91518621 22 27 C22 28.65 22 30.3 22 32 C-5.39 32 -32.78 32 -61 32 C-59.76359547 20.87235924 -56.62353819 12.4282535 -48.2734375 4.75 C-33.47046845 -6.64472532 -16.71158392 -8.2145367 0 0 Z " fill="#313457" transform="translate(268,119)"/>
<path d="M0 0 C38.61 0 77.22 0 117 0 C117 4.29 117 8.58 117 13 C78.39 13 39.78 13 0 13 C0 8.71 0 4.42 0 0 Z " fill="#F8F8F8" transform="translate(112,408)"/>
<path d="M0 0 C37.62 0 75.24 0 114 0 C114 4.29 114 8.58 114 13 C76.38 13 38.76 13 0 13 C0 8.71 0 4.42 0 0 Z " fill="#F8F8F8" transform="translate(112,170)"/>
<path d="M0 0 C8.00986452 1.06309415 14.18858981 11.14729717 18.8125 17.0625 C19.84310547 18.44115234 19.84310547 18.44115234 20.89453125 19.84765625 C23.31641792 22.32346247 24.58028275 22.81186022 28 23 C30.75256244 22.15020525 30.75256244 22.15020525 33 21 C32.69731805 24.28381364 32.31671696 25.68924758 29.92578125 28.03515625 C29.06339844 28.70417969 28.20101562 29.37320313 27.3125 30.0625 C18.88838878 37.31760007 15.58706978 46.20792547 14 57 C20.27 57 26.54 57 33 57 C33 57.66 33 58.32 33 59 C23.71599429 59.02319818 14.4319986 59.04095318 5.1479702 59.05181217 C0.83675485 59.05702465 -3.47444062 59.06409257 -7.78564453 59.07543945 C-11.94830902 59.08632649 -16.11095442 59.09228916 -20.27363205 59.09487724 C-21.85959549 59.09672101 -23.44555792 59.10032141 -25.03151321 59.10573006 C-27.25752243 59.11301771 -29.48345338 59.11398769 -31.70947266 59.11352539 C-32.97522125 59.115746 -34.24096985 59.11796661 -35.54507446 59.12025452 C-38.78977936 59.00731708 -41.81648077 58.61672977 -45 58 C-45 57.01 -45 56.02 -45 55 C-26.65477021 54.79489805 -8.33333134 55.41877466 10 56 C10 53.36 10 50.72 10 48 C6.3126339 46.39552543 2.62508303 44.79147592 -1.0625 43.1875 C-2.10083984 42.73568359 -3.13917969 42.28386719 -4.20898438 41.81835938 C-9.46678523 39.53163329 -14.72694191 37.25133402 -20 35 C-20 33.68 -20 32.36 -20 31 C-16.01461903 31.65037449 -12.6027593 32.8827195 -8.89453125 34.46875 C-7.74662109 34.95730469 -6.59871094 35.44585937 -5.41601562 35.94921875 C-4.22685547 36.46097656 -3.03769531 36.97273438 -1.8125 37.5 C-0.61173828 38.01175781 0.58902344 38.52351563 1.82617188 39.05078125 C10.5667833 42.78339165 10.5667833 42.78339165 13 44 C13.144375 43.2575 13.28875 42.515 13.4375 41.75 C13.90199226 39.47914894 14.42905436 37.24539967 15 35 C7.3616722 30.02649074 -0.33145442 25.16458388 -8.125 20.4375 C-13.48698265 17.16965049 -18.84241603 13.89505691 -24.125 10.5 C-25.07632813 9.8915625 -26.02765625 9.283125 -27.0078125 8.65625 C-27.66523438 8.1096875 -28.32265625 7.563125 -29 7 C-29 6.01 -29 5.02 -29 4 C-24.77990508 4.57969919 -21.94378957 6.02481694 -18.3515625 8.28125 C-17.2702002 8.95486572 -16.18883789 9.62848145 -15.07470703 10.32250977 C-14.5106012 10.67870392 -13.94649536 11.03489807 -13.36529541 11.40188599 C-11.61530447 12.50611781 -9.85924866 13.60001451 -8.10107422 14.69116211 C-3.85229493 17.33020695 0.38822327 19.98211489 4.6171875 22.65283203 C6.69727359 23.96575326 8.78503617 25.26539289 10.875 26.5625 C11.98617187 27.26503906 13.09734375 27.96757813 14.2421875 28.69140625 C16.85620163 30.23191576 16.85620163 30.23191576 19.3828125 29.71484375 C19.91648437 29.47894531 20.45015625 29.24304688 21 29 C20.13860583 24.47006575 17.48972832 21.97427987 14.375 18.75 C13.28200015 17.59036372 12.1895504 16.4302087 11.09765625 15.26953125 C10.56672363 14.70959473 10.03579102 14.1496582 9.48876953 13.57275391 C7.57273637 11.5486336 5.6793903 9.50705897 3.8125 7.4375 C3.28269531 6.85871094 2.75289062 6.27992187 2.20703125 5.68359375 C0.8607673 3.80579516 0.41008723 2.25795019 0 0 Z " fill="#F1F2F4" transform="translate(193,95)"/>
<path d="M0 0 C1.32 0 2.64 0 4 0 C4.5576001 1.04003174 4.5576001 1.04003174 5.12646484 2.10107422 C6.55447229 4.76302092 7.98399071 7.42415108 9.41400146 10.08502197 C10.3741251 11.87337039 11.33190061 13.66296281 12.28955078 15.45263672 C15.17255239 20.8293265 18.07496984 26.18628566 21.15625 31.453125 C21.85161865 32.65219482 21.85161865 32.65219482 22.56103516 33.87548828 C23.41082252 35.33032678 24.27425611 36.77731649 25.15380859 38.21435547 C27.96241439 43.04868458 28.41045505 46.41532374 28 52 C24.59971889 48.05079458 22.23767907 43.9760347 19.875 39.375 C19.30120605 38.2758728 19.30120605 38.2758728 18.71582031 37.15454102 C17.47247334 34.7721294 16.23608531 32.3861862 15 30 C13.68404988 27.46868507 12.36574765 24.93865349 11.04345703 22.41064453 C10.20520421 20.8078697 9.37004497 19.2034716 8.53857422 17.59716797 C6.21267839 13.14473882 3.72885085 8.90027662 0.92675781 4.72875977 C0 3 0 3 0 0 Z " fill="#F0F1F3" transform="translate(198,59)"/>
<path d="M0 0 C0.33 1.32 0.66 2.64 1 4 C1.99 4 2.98 4 4 4 C4.33 2.68 4.66 1.36 5 0 C5.66 0 6.32 0 7 0 C7.33 1.32 7.66 2.64 8 4 C8.9590625 4.2165625 8.9590625 4.2165625 9.9375 4.4375 C12 5 12 5 13 6 C13.07205511 7.68608966 13.08386068 9.37500659 13.0625 11.0625 C13.05347656 11.98160156 13.04445312 12.90070313 13.03515625 13.84765625 C13.02355469 14.55792969 13.01195312 15.26820313 13 16 C12.34 16 11.68 16 11 16 C11 12.7 11 9.4 11 6 C9.68 6 8.36 6 7 6 C7 9.3 7 12.6 7 16 C5.00045254 16.04254356 2.99958364 16.04080783 1 16 C0 15 0 15 -0.09765625 11.62109375 C-0.09098369 10.22652923 -0.07902532 8.83198257 -0.0625 7.4375 C-0.05798828 6.72658203 -0.05347656 6.01566406 -0.04882812 5.28320312 C-0.03700864 3.52209987 -0.01907263 1.76103964 0 0 Z " fill="#A8A7B1" transform="translate(200,429)"/>
<path d="M0 0 C0.66 0 1.32 0 2 0 C2 5.28 2 10.56 2 16 C0.02 16 -1.96 16 -4 16 C-5 15 -5 15 -5.09765625 12.71484375 C-5.08605469 11.79832031 -5.07445312 10.88179688 -5.0625 9.9375 C-5.05347656 9.01839844 -5.04445313 8.09929687 -5.03515625 7.15234375 C-5.02355469 6.44207031 -5.01195312 5.73179687 -5 5 C-3.68 4.67 -2.36 4.34 -1 4 C-0.67 2.68 -0.34 1.36 0 0 Z " fill="#DAD9DC" transform="translate(361,429)"/>
<path d="M0 0 C1.89488952 1.89488952 1.18019112 4.57139146 1.23046875 7.08984375 C1 9 1 9 -1 11 C-1.99 11 -2.98 11 -4 11 C-4.66 12.32 -5.32 13.64 -6 15 C-6 10.05 -6 5.1 -6 0 C-3.49749232 -1.25125384 -2.59701335 -0.83774624 0 0 Z " fill="#E3E2E5" transform="translate(325,434)"/>
<path d="M0 0 C2.31 0.33 4.62 0.66 7 1 C7 3.64 7 6.28 7 9 C5.35 9.33 3.7 9.66 2 10 C2 11.98 2 13.96 2 16 C1.34 16 0.68 16 0 16 C0 10.72 0 5.44 0 0 Z " fill="#D7D7DB" transform="translate(229,429)"/>
<path d="M0 0 C4.70588235 0.70588235 4.70588235 0.70588235 6 2 C6.27314815 7.73611111 6.27314815 7.73611111 6 10 C5.34 10.66 4.68 11.32 4 12 C1.375 11.625 1.375 11.625 -1 11 C-1.02688151 9.35425434 -1.04634123 7.70838587 -1.0625 6.0625 C-1.07410156 5.14597656 -1.08570313 4.22945313 -1.09765625 3.28515625 C-1 1 -1 1 0 0 Z " fill="#DBDBDE" transform="translate(283,433)"/>
<path d="M0 0 C3.53571429 0.53571429 3.53571429 0.53571429 5 2 C5.23880597 9.52238806 5.23880597 9.52238806 4 12 C2.33388095 12.042721 0.66617115 12.04063832 -1 12 C-2.58894072 10.41105928 -2.16998411 8.75198576 -2.1875 6.5625 C-2.20167969 5.75941406 -2.21585938 4.95632813 -2.23046875 4.12890625 C-2 2 -2 2 0 0 Z " fill="#CDCCD2" transform="translate(240,433)"/>
<path d="M0 0 C0.66 0 1.32 0 2 0 C2.66 1.98 3.32 3.96 4 6 C4.66 4.02 5.32 2.04 6 0 C6.66 0.33 7.32 0.66 8 1 C8.625 3.0625 8.625 3.0625 9 5 C9.66 3.35 10.32 1.7 11 0 C11.66 0 12.32 0 13 0 C12.34 3.96 11.68 7.92 11 12 C10.01 12 9.02 12 8 12 C7.67 10.68 7.34 9.36 7 8 C6.34 9.32 5.68 10.64 5 12 C4.01 11.67 3.02 11.34 2 11 C1.34 7.37 0.68 3.74 0 0 Z " fill="#C3C2C8" transform="translate(246,433)"/>
<path d="M0 0 C0.66 0 1.32 0 2 0 C2 0.99 2 1.98 2 3 C3.32 3 4.64 3 6 3 C6.66 2.34 7.32 1.68 8 1 C8 1.66 8 2.32 8 3 C8.66 3.33 9.32 3.66 10 4 C9.34 4 8.68 4 8 4 C8 5.65 8 7.3 8 9 C4.78548731 10.60725635 1.56387464 10.05748185 -2 10 C-1.34 9.67 -0.68 9.34 0 9 C0 7.35 0 5.7 0 4 C-0.66 3.67 -1.32 3.34 -2 3 C-1.34 3 -0.68 3 0 3 C0 2.01 0 1.02 0 0 Z " fill="#898895" transform="translate(205,451)"/>
<path d="M0 0 C4.875 0.875 4.875 0.875 6 2 C6.07205511 3.68608966 6.08386068 5.37500659 6.0625 7.0625 C6.05347656 7.98160156 6.04445312 8.90070313 6.03515625 9.84765625 C6.02355469 10.55792969 6.01195312 11.26820313 6 12 C3.69 12 1.38 12 -1 12 C-1 10.02 -1 8.04 -1 6 C-0.360625 5.896875 0.27875 5.79375 0.9375 5.6875 C1.618125 5.460625 2.29875 5.23375 3 5 C3.33 4.01 3.66 3.02 4 2 C2.35 2.66 0.7 3.32 -1 4 C-0.67 2.68 -0.34 1.36 0 0 Z " fill="#A7A7B1" transform="translate(169,433)"/>
<path d="M0 0 C3.53571429 0.53571429 3.53571429 0.53571429 5 2 C5.04063832 3.66617115 5.042721 5.33388095 5 7 C3.35 7 1.7 7 0 7 C0 7.99 0 8.98 0 10 C0.99 10 1.98 10 3 10 C3 9.34 3 8.68 3 8 C3.66 8 4.32 8 5 8 C4.67 9.32 4.34 10.64 4 12 C2.35 12 0.7 12 -1 12 C-2.11445498 9.77109005 -2.16480286 8.46944894 -2.1875 6 C-2.20167969 5.29875 -2.21585937 4.5975 -2.23046875 3.875 C-2 2 -2 2 0 0 Z " fill="#D6D5DA" transform="translate(262,433)"/>
<path d="M0 0 C3.53571429 0.53571429 3.53571429 0.53571429 5 2 C5.04063832 3.66617115 5.042721 5.33388095 5 7 C3.35 7 1.7 7 0 7 C0 7.99 0 8.98 0 10 C0.99 10 1.98 10 3 10 C3 9.34 3 8.68 3 8 C3.66 8 4.32 8 5 8 C4.67 9.32 4.34 10.64 4 12 C2.33388095 12.042721 0.66617115 12.04063832 -1 12 C-2.58894072 10.41105928 -2.16998411 8.75198576 -2.1875 6.5625 C-2.20167969 5.75941406 -2.21585938 4.95632813 -2.23046875 4.12890625 C-2 2 -2 2 0 0 Z " fill="#B5B5BE" transform="translate(161,433)"/>
<path d="M0 0 C4.70588235 0.70588235 4.70588235 0.70588235 6 2 C6.04063832 3.66617115 6.042721 5.33388095 6 7 C4.02 7 2.04 7 0 7 C0.33 7.99 0.66 8.98 1 10 C1.66 10 2.32 10 3 10 C3.33 9.34 3.66 8.68 4 8 C4.66 8 5.32 8 6 8 C5.34 9.32 4.68 10.64 4 12 C2.35 11.67 0.7 11.34 -1 11 C-1.02688151 9.35425434 -1.04634123 7.70838587 -1.0625 6.0625 C-1.07410156 5.14597656 -1.08570313 4.22945313 -1.09765625 3.28515625 C-1 1 -1 1 0 0 Z " fill="#B5B4BD" transform="translate(216,433)"/>
<path d="M0 0 C3.53571429 0.53571429 3.53571429 0.53571429 5 2 C5.07205511 3.68608966 5.08386068 5.37500659 5.0625 7.0625 C5.05347656 7.98160156 5.04445313 8.90070313 5.03515625 9.84765625 C5.02355469 10.55792969 5.01195312 11.26820313 5 12 C4.34 11.67 3.68 11.34 3 11 C3 9.68 3 8.36 3 7 C1.68 7 0.36 7 -1 7 C-0.2236068 10.0745356 -0.2236068 10.0745356 2 12 C0.68 11.67 -0.64 11.34 -2 11 C-2.05399736 9.54207116 -2.09279177 8.08357288 -2.125 6.625 C-2.15980469 5.40683594 -2.15980469 5.40683594 -2.1953125 4.1640625 C-2 2 -2 2 0 0 Z " fill="#BAB9BF" transform="translate(340,433)"/>
<path d="M0 0 C0.66 0 1.32 0 2 0 C2.33 1.32 2.66 2.64 3 4 C4.32 4.33 5.64 4.66 7 5 C7 8.63 7 12.26 7 16 C6.67 16 6.34 16 6 16 C6 12.7 6 9.4 6 6 C4.68 6 3.36 6 2 6 C2 9.3 2 12.6 2 16 C1.34 16 0.68 16 0 16 C0 10.72 0 5.44 0 0 Z " fill="#DADADE" transform="translate(185,429)"/>
<path d="M0 0 C0.66 0 1.32 0 2 0 C2 0.99 2 1.98 2 3 C3.65 3 5.3 3 7 3 C6.38722388 5.96175123 5.74627478 7.38058783 4 10 C2.68 10 1.36 10 0 10 C0 6.7 0 3.4 0 0 Z " fill="#908E9B" transform="translate(224,451)"/>
<path d="M0 0 C2.00720923 0.28674418 4.0085944 0.61866701 6 1 C6 1.66 6 2.32 6 3 C6.66 3.33 7.32 3.66 8 4 C7.34 4 6.68 4 6 4 C6 5.98 6 7.96 6 10 C5.67 10 5.34 10 5 10 C4.67 8.35 4.34 6.7 4 5 C2.00016466 5.79117904 2.00016466 5.79117904 0 7 C-0.33 7.99 -0.66 8.98 -1 10 C-1.02689216 8.52093108 -1.04634621 7.04172517 -1.0625 5.5625 C-1.07410156 4.73878906 -1.08570313 3.91507812 -1.09765625 3.06640625 C-1 1 -1 1 0 0 Z " fill="#30365A" transform="translate(239,451)"/>
<path d="M0 0 C0.66 0 1.32 0 2 0 C2.66 1.65 3.32 3.3 4 5 C4.66 3.35 5.32 1.7 6 0 C7.26977059 3.80931176 6.52074507 5.81618993 5.5625 9.6875 C5.27503906 10.86699219 4.98757813 12.04648437 4.69140625 13.26171875 C4.46324219 14.16535156 4.23507812 15.06898438 4 16 C3.34 16 2.68 16 2 16 C1.20734361 10.67787852 0.57021934 5.3503559 0 0 Z " fill="#C4C3C9" transform="translate(310,433)"/>
<path d="M0 0 C1.98 0 3.96 0 6 0 C7 1 7 1 7.09765625 3.50390625 C7.08605469 4.51324219 7.07445312 5.52257812 7.0625 6.5625 C7.05347656 7.57441406 7.04445312 8.58632813 7.03515625 9.62890625 C7.02355469 10.41136719 7.01195312 11.19382812 7 12 C6.67 12 6.34 12 6 12 C6 8.7 6 5.4 6 2 C4.68 2 3.36 2 2 2 C2 5.3 2 8.6 2 12 C1.34 12 0.68 12 0 12 C0 8.04 0 4.08 0 0 Z " fill="#D8D8DD" transform="translate(146,433)"/>
<path d="M0 0 C1.65 0.33 3.3 0.66 5 1 C4.67 1.99 4.34 2.98 4 4 C4 3.34 4 2.68 4 2 C2.68 2 1.36 2 0 2 C0.845625 2.721875 1.69125 3.44375 2.5625 4.1875 C5 7 5 7 4.8125 9.8125 C4.4103125 10.8953125 4.4103125 10.8953125 4 12 C2.35 12 0.7 12 -1 12 C-1.33 10.68 -1.66 9.36 -2 8 C-1.34 8 -0.68 8 0 8 C0 8.66 0 9.32 0 10 C0.99 10 1.98 10 3 10 C3 9.01 3 8.02 3 7 C1.68 6.34 0.36 5.68 -1 5 C-0.67 3.35 -0.34 1.7 0 0 Z " fill="#E0E0E3" transform="translate(178,433)"/>
<path d="M0 0 C0.99 0 1.98 0 3 0 C3 0.66 3 1.32 3 2 C2.34 2 1.68 2 1 2 C1 2.66 1 3.32 1 4 C1.66 4 2.32 4 3 4 C3 4.66 3 5.32 3 6 C2.34 6 1.68 6 1 6 C1 9.3 1 12.6 1 16 C0.34 16 -0.32 16 -1 16 C-1.02685095 13.52076199 -1.04676547 11.0418116 -1.0625 8.5625 C-1.07506836 7.50192383 -1.07506836 7.50192383 -1.08789062 6.41992188 C-1.09653588 4.61306441 -1.05220011 2.80612397 -1 1 C-0.67 0.67 -0.34 0.34 0 0 Z " fill="#CCCCD1" transform="translate(291,429)"/>
<path d="M0 0 C1.32 0 2.64 0 4 0 C4 2.64 4 5.28 4 8 C2.68 8 1.36 8 0 8 C0 5.36 0 2.72 0 0 Z " fill="#3D3849" transform="translate(357,435)"/>
<path d="M0 0 C1.32 0 2.64 0 4 0 C4 2.64 4 5.28 4 8 C2.68 8 1.36 8 0 8 C0 5.36 0 2.72 0 0 Z " fill="#393547" transform="translate(320,435)"/>
<path d="M0 0 C1.32 0 2.64 0 4 0 C4 2.64 4 5.28 4 8 C2.68 8 1.36 8 0 8 C0 5.36 0 2.72 0 0 Z " fill="#3D394D" transform="translate(283,435)"/>
<path d="M0 0 C2.0625 0.25 2.0625 0.25 4 1 C4.33 1.66 4.66 2.32 5 3 C4.67 3.99 4.34 4.98 4 6 C2.35 6 0.7 6 -1 6 C-1.625 4.125 -1.625 4.125 -2 2 C-1.34 1.34 -0.68 0.68 0 0 Z " fill="#93919C" transform="translate(262,433)"/>
<path d="M0 0 C0.99 0 1.98 0 3 0 C3 2.31 3 4.62 3 7 C1.68 7 0.36 7 -1 7 C-1.04254356 5.00045254 -1.04080783 2.99958364 -1 1 C-0.67 0.67 -0.34 0.34 0 0 Z " fill="#30365A" transform="translate(268,454)"/>
<path d="M0 0 C0.33 0.66 0.66 1.32 1 2 C1.66 2.33 2.32 2.66 3 3 C2.34 3 1.68 3 1 3 C1 4.65 1 6.3 1 8 C-0.65 8.33 -2.3 8.66 -4 9 C-3.34 8.67 -2.68 8.34 -2 8 C-2 6.35 -2 4.7 -2 3 C-2.66 2.67 -3.32 2.34 -4 2 C-3.01 2 -2.02 2 -1 2 C-0.67 1.34 -0.34 0.68 0 0 Z " fill="#BAB9C1" transform="translate(212,452)"/>
<path d="M0 0 C1.32 0.33 2.64 0.66 4 1 C4 2.65 4 4.3 4 6 C2.68 6.33 1.36 6.66 0 7 C0 4.69 0 2.38 0 0 Z " fill="#37354B" transform="translate(231,431)"/>
<path d="M0 0 C0.66 0 1.32 0 2 0 C2.33 2.64 2.66 5.28 3 8 C3.66 8 4.32 8 5 8 C5 9.32 5 10.64 5 12 C4.01 11.67 3.02 11.34 2 11 C1.34 7.37 0.68 3.74 0 0 Z " fill="#CCCCD1" transform="translate(246,433)"/>
<path d="M0 0 C0.66 0 1.32 0 2 0 C2.433125 0.9590625 2.433125 0.9590625 2.875 1.9375 C3.82823451 4.15206079 3.82823451 4.15206079 6 5 C6 5.99 6 6.98 6 8 C5.01 8 4.02 8 3 8 C3 7.34 3 6.68 3 6 C2.01 5.67 1.02 5.34 0 5 C0 3.35 0 1.7 0 0 Z " fill="#3F3D55" transform="translate(175,435)"/>
<path d="M0 0 C0.99 0 1.98 0 3 0 C3 2.64 3 5.28 3 8 C2.01 8 1.02 8 0 8 C0 5.36 0 2.72 0 0 Z " fill="#2B283F" transform="translate(240,435)"/>
<path d="M0 0 C-0.33 1.32 -0.66 2.64 -1 4 C-1.99 4 -2.98 4 -4 4 C-4.66 5.32 -5.32 6.64 -6 8 C-6.625 5.625 -6.625 5.625 -7 3 C-4.42280223 0.42280223 -3.67620068 0 0 0 Z " fill="#4E4D63" transform="translate(173,435)"/>
<path d="M0 0 C0.99 0.33 1.98 0.66 3 1 C3 2.98 3 4.96 3 7 C-1.875 5.25 -1.875 5.25 -3 3 C-2.34 2.67 -1.68 2.34 -1 2 C-0.67 1.34 -0.34 0.68 0 0 Z " fill="#31385E" transform="translate(295,454)"/>
<path d="M0 0 C0.33 0 0.66 0 1 0 C1 1.65 1 3.3 1 5 C0.01 5.495 0.01 5.495 -1 6 C-1 5.34 -1 4.68 -1 4 C-1.66 4 -2.32 4 -3 4 C-3 4.66 -3 5.32 -3 6 C-3.99 6 -4.98 6 -6 6 C-6 5.01 -6 4.02 -6 3 C-4.02 3 -2.04 3 0 3 C0 2.01 0 1.02 0 0 Z " fill="#2B273E" transform="translate(268,437)"/>
<path d="M0 0 C1.98 0 3.96 0 6 0 C5.67 1.65 5.34 3.3 5 5 C2.5 3.625 2.5 3.625 0 2 C0 1.34 0 0.68 0 0 Z " fill="#434259" transform="translate(178,435)"/>
<path d="M0 0 C1.65 0.33 3.3 0.66 5 1 C5.33 1.99 5.66 2.98 6 4 C5.34 4.66 4.68 5.32 4 6 C4 4.68 4 3.36 4 2 C2.35 2.66 0.7 3.32 -1 4 C-0.67 2.68 -0.34 1.36 0 0 Z " fill="#CFCED4" transform="translate(169,433)"/>
<path d="M0 0 C0.66 0 1.32 0 2 0 C2 0.66 2 1.32 2 2 C2.99 2 3.98 2 5 2 C5.33 1.34 5.66 0.68 6 0 C6.33 0.99 6.66 1.98 7 3 C6 4 6 4 3.4375 4.0625 C2.2309375 4.0315625 2.2309375 4.0315625 1 4 C0.67 2.68 0.34 1.36 0 0 Z " fill="#C6C6CD" transform="translate(176,441)"/>
<path d="M0 0 C1.32 0 2.64 0 4 0 C4.33 1.65 4.66 3.3 5 5 C2.525 4.01 2.525 4.01 0 3 C0 2.01 0 1.02 0 0 Z " fill="#4F4B5B" transform="translate(339,440)"/>
</svg>
